<svg width="288" height="274" viewBox="0 0 288 274" fill="none" xmlns="http://www.w3.org/2000/svg">
<g clip-path="url(#clip0_1_2)">
<g filter="url(#filter0_dii_1_2)">
<ellipse cx="144.5" cy="137" rx="131.5" ry="131" fill="#333333"/>
</g>
<g filter="url(#filter1_d_1_2)">
<path d="M99.7461 202.832C92.675 206.368 75.3509 188.336 78.2816 181.368C79.5079 178.452 97.9877 159.237 119.5 137.633C119.5 137.633 83.0632 99.0469 78.2816 92.5234C73.5 86 96 67.148 99.7461 71.0589C103.492 74.9698 143.5 113.774 143.5 113.774C165.904 91.7151 186.054 72.4689 188.59 71.0589C194.498 67.7747 213.237 86.513 210.055 92.5234C208.454 95.5462 189.352 115.501 167.453 137.633C167.453 137.633 205.895 175.5 210.055 181.368C214.214 187.235 194.68 208.664 188.59 202.832C182.5 197 143.5 161.597 143.5 161.597C121.915 182.969 102.71 201.35 99.7461 202.832Z" fill="#ffffff"/>
<path d="M99.7461 202.832C92.675 206.368 75.3509 188.336 78.2816 181.368C79.5079 178.452 97.9877 159.237 119.5 137.633C119.5 137.633 83.0632 99.0469 78.2816 92.5234C73.5 86 96 67.148 99.7461 71.0589C103.492 74.9698 143.5 113.774 143.5 113.774C165.904 91.7151 186.054 72.4689 188.59 71.0589C194.498 67.7747 213.237 86.513 210.055 92.5234C208.454 95.5462 189.352 115.501 167.453 137.633C167.453 137.633 205.895 175.5 210.055 181.368C214.214 187.235 194.68 208.664 188.59 202.832C182.5 197 143.5 161.597 143.5 161.597C121.915 182.969 102.71 201.35 99.7461 202.832Z" stroke="black"/>
</g>
</g>
<defs>
<filter id="filter0_dii_1_2" x="9" y="2" width="271" height="274" filterUnits="userSpaceOnUse" color-interpolation-filters="sRGB">
<feFlood flood-opacity="0" result="BackgroundImageFix"/>
<feColorMatrix in="SourceAlpha" type="matrix" values="0 0 0 0 0 0 0 0 0 0 0 0 0 0 0 0 0 0 127 0" result="hardAlpha"/>
<feOffset dy="4"/>
<feGaussianBlur stdDeviation="2"/>
<feComposite in2="hardAlpha" operator="out"/>
<feColorMatrix type="matrix" values="0 0 0 0 0 0 0 0 0 0 0 0 0 0 0 0 0 0 0.25 0"/>
<feBlend mode="normal" in2="BackgroundImageFix" result="effect1_dropShadow_1_2"/>
<feBlend mode="normal" in="SourceGraphic" in2="effect1_dropShadow_1_2" result="shape"/>
<feColorMatrix in="SourceAlpha" type="matrix" values="0 0 0 0 0 0 0 0 0 0 0 0 0 0 0 0 0 0 127 0" result="hardAlpha"/>
<feOffset dx="4" dy="4"/>
<feGaussianBlur stdDeviation="11"/>
<feComposite in2="hardAlpha" operator="arithmetic" k2="-1" k3="1"/>
<feColorMatrix type="matrix" values="0 0 0 0 0.7 0 0 0 0 1 0 0 0 0 0.73 0 0 0 0.66 0"/>
<feBlend mode="normal" in2="shape" result="effect2_innerShadow_1_2"/>
<feColorMatrix in="SourceAlpha" type="matrix" values="0 0 0 0 0 0 0 0 0 0 0 0 0 0 0 0 0 0 127 0" result="hardAlpha"/>
<feOffset dy="-4"/>
<feGaussianBlur stdDeviation="11.5"/>
<feComposite in2="hardAlpha" operator="arithmetic" k2="-1" k3="1"/>
<feColorMatrix type="matrix" values="0 0 0 0 0.0777257 0 0 0 0 0.154167 0 0 0 0 0.0899563 0 0 0 0.97 0"/>
<feBlend mode="normal" in2="effect2_innerShadow_1_2" result="effect3_innerShadow_1_2"/>
</filter>
<filter id="filter1_d_1_2" x="67.1181" y="64.0305" width="154.012" height="154.298" filterUnits="userSpaceOnUse" color-interpolation-filters="sRGB">
<feFlood flood-opacity="0" result="BackgroundImageFix"/>
<feColorMatrix in="SourceAlpha" type="matrix" values="0 0 0 0 0 0 0 0 0 0 0 0 0 0 0 0 0 0 127 0" result="hardAlpha"/>
<feOffset dy="4"/>
<feGaussianBlur stdDeviation="5"/>
<feComposite in2="hardAlpha" operator="out"/>
<feColorMatrix type="matrix" values="0 0 0 0 0 0 0 0 0 0 0 0 0 0 0 0 0 0 0.72 0"/>
<feBlend mode="normal" in2="BackgroundImageFix" result="effect1_dropShadow_1_2"/>
<feBlend mode="normal" in="SourceGraphic" in2="effect1_dropShadow_1_2" result="shape"/>
</filter>
<clipPath id="clip0_1_2">
<rect width="288" height="274" fill="white"/>
</clipPath>
</defs>
</svg>
