<svg width="85" height="39" viewBox="0 0 85 39" fill="none" xmlns="http://www.w3.org/2000/svg">
<g filter="url(#filter0_d_4_20)">
<path d="M51.4927 2.32943C48.5795 3.19694 45.1996 4.08562 42.1862 3.9939C40.3765 3.9394 38.6587 3.45974 37.0326 3.02944C26.0682 0.129125 16.1839 -0.936632 4.01847 2.37764L4.85804 8.32766C5.61591 8.34322 6.88352 8.65611 6.95681 10.3393C7.54943 23.8993 10.6519 30.3867 21.7173 29.9923C35.4109 29.5046 38.8531 16.7592 39.557 11.913C39.9345 9.31217 41.0846 9.04164 42.3727 8.99473C44.6543 8.91139 44.9316 10.8464 45.3422 12.0167C50.167 25.7706 53.0185 28.8903 62.8802 29.8342C77.8718 31.2708 76.0255 18.387 77.9814 10.8837C78.356 9.45003 78.7748 8.71418 80.1295 8.67227L80.7148 2.7138C72.015 0.607195 62.9914 -1.09348 51.4927 2.32943ZM7.82954 6.16175C6.74745 6.1675 5.8677 5.91308 5.8647 5.59347C5.86171 5.27386 6.73661 5.01013 7.81869 5.00439C8.90078 4.99864 9.78055 5.25395 9.78353 5.57266C9.78653 5.89227 8.91163 6.156 7.82954 6.16175ZM35.6281 15.1942C33.5994 22.3855 30.3629 27.6137 21.9265 27.9211C13.5681 27.9655 11.1228 26.2103 9.90716 14.9168C9.83611 7.33611 9.36659 2.90035 21.7629 2.86124C30.13 3.74808 38.8963 3.60894 35.6281 15.1942ZM75.1622 14.5712C74.1584 25.8756 71.747 27.6575 63.3871 27.7019C54.9457 27.4841 51.6115 22.2907 49.4483 15.1217C45.964 3.57141 54.7312 3.61745 63.0816 2.64272C75.4767 2.55019 75.0911 6.99049 75.1622 14.5712ZM77.1867 6.37306C76.1054 6.3788 75.2249 6.1235 75.2219 5.80478C75.2189 5.48517 76.0946 5.22144 77.1759 5.2157C78.2572 5.20995 79.1377 5.46436 79.1407 5.78397C79.1437 6.10269 78.2688 6.36731 77.1867 6.37306Z" fill="#EEEEEE"/>
</g>
<defs>
<filter id="filter0_d_4_20" x="0.0184937" y="0.329346" width="84.6964" height="37.6799" filterUnits="userSpaceOnUse" color-interpolation-filters="sRGB">
<feFlood flood-opacity="0" result="BackgroundImageFix"/>
<feColorMatrix in="SourceAlpha" type="matrix" values="0 0 0 0 0 0 0 0 0 0 0 0 0 0 0 0 0 0 127 0" result="hardAlpha"/>
<feOffset dy="4"/>
<feGaussianBlur stdDeviation="2"/>
<feComposite in2="hardAlpha" operator="out"/>
<feColorMatrix type="matrix" values="0 0 0 0 0 0 0 0 0 0 0 0 0 0 0 0 0 0 0.25 0"/>
<feBlend mode="normal" in2="BackgroundImageFix" result="effect1_dropShadow_4_20"/>
<feBlend mode="normal" in="SourceGraphic" in2="effect1_dropShadow_4_20" result="shape"/>
</filter>
</defs>
</svg>
