<svg width="288" height="274" viewBox="0 0 288 274" fill="none" xmlns="http://www.w3.org/2000/svg">
<g clip-path="url(#clip0)">
<g filter="url(#filter0_dii)">
<ellipse cx="144.5" cy="137" rx="131.5" ry="131" fill="#226130"/>
</g>
<g filter="url(#filter1_d)">
<path d="M92.786 214.875C89.9306 207.875 90.9306 65.375 92.786 58.875C94.6414 52.375 121.141 52.375 123.141 58.875C125.494 66.5212 125.641 207.375 123.141 214.875C120.641 222.375 95.6414 221.875 92.786 214.875Z" fill="#78E8A4"/>
<path d="M92.786 214.875C89.9306 207.875 90.9306 65.375 92.786 58.875C94.6414 52.375 121.141 52.375 123.141 58.875C125.494 66.5212 125.641 207.375 123.141 214.875C120.641 222.375 95.6414 221.875 92.786 214.875Z" stroke="black"/>
</g>
<g filter="url(#filter2_d)">
<path d="M161.786 214.875C158.931 207.875 159.931 65.375 161.786 58.875C163.641 52.375 190.141 52.375 192.141 58.875C194.494 66.5212 194.641 207.375 192.141 214.875C189.641 222.375 164.641 221.875 161.786 214.875Z" fill="#78E8A4"/>
<path d="M161.786 214.875C158.931 207.875 159.931 65.375 161.786 58.875C163.641 52.375 190.141 52.375 192.141 58.875C194.494 66.5212 194.641 207.375 192.141 214.875C189.641 222.375 164.641 221.875 161.786 214.875Z" stroke="black"/>
</g>
</g>
<defs>
<filter id="filter0_dii" x="9" y="2" width="271" height="274" filterUnits="userSpaceOnUse" color-interpolation-filters="sRGB">
<feFlood flood-opacity="0" result="BackgroundImageFix"/>
<feColorMatrix in="SourceAlpha" type="matrix" values="0 0 0 0 0 0 0 0 0 0 0 0 0 0 0 0 0 0 127 0" result="hardAlpha"/>
<feOffset dy="4"/>
<feGaussianBlur stdDeviation="2"/>
<feComposite in2="hardAlpha" operator="out"/>
<feColorMatrix type="matrix" values="0 0 0 0 0 0 0 0 0 0 0 0 0 0 0 0 0 0 0.25 0"/>
<feBlend mode="normal" in2="BackgroundImageFix" result="effect1_dropShadow"/>
<feBlend mode="normal" in="SourceGraphic" in2="effect1_dropShadow" result="shape"/>
<feColorMatrix in="SourceAlpha" type="matrix" values="0 0 0 0 0 0 0 0 0 0 0 0 0 0 0 0 0 0 127 0" result="hardAlpha"/>
<feOffset dx="4" dy="4"/>
<feGaussianBlur stdDeviation="11"/>
<feComposite in2="hardAlpha" operator="arithmetic" k2="-1" k3="1"/>
<feColorMatrix type="matrix" values="0 0 0 0 0.7 0 0 0 0 1 0 0 0 0 0.73 0 0 0 0.66 0"/>
<feBlend mode="normal" in2="shape" result="effect2_innerShadow"/>
<feColorMatrix in="SourceAlpha" type="matrix" values="0 0 0 0 0 0 0 0 0 0 0 0 0 0 0 0 0 0 127 0" result="hardAlpha"/>
<feOffset dy="-4"/>
<feGaussianBlur stdDeviation="11.5"/>
<feComposite in2="hardAlpha" operator="arithmetic" k2="-1" k3="1"/>
<feColorMatrix type="matrix" values="0 0 0 0 0.0777257 0 0 0 0 0.154167 0 0 0 0 0.0899563 0 0 0 0.97 0"/>
<feBlend mode="normal" in2="effect2_innerShadow" result="effect3_innerShadow"/>
</filter>
<filter id="filter1_d" x="80.5" y="47.5" width="54.9616" height="187.314" filterUnits="userSpaceOnUse" color-interpolation-filters="sRGB">
<feFlood flood-opacity="0" result="BackgroundImageFix"/>
<feColorMatrix in="SourceAlpha" type="matrix" values="0 0 0 0 0 0 0 0 0 0 0 0 0 0 0 0 0 0 127 0" result="hardAlpha"/>
<feOffset dy="4"/>
<feGaussianBlur stdDeviation="5"/>
<feComposite in2="hardAlpha" operator="out"/>
<feColorMatrix type="matrix" values="0 0 0 0 0 0 0 0 0 0 0 0 0 0 0 0 0 0 0.72 0"/>
<feBlend mode="normal" in2="BackgroundImageFix" result="effect1_dropShadow"/>
<feBlend mode="normal" in="SourceGraphic" in2="effect1_dropShadow" result="shape"/>
</filter>
<filter id="filter2_d" x="149.5" y="47.5" width="54.9616" height="187.314" filterUnits="userSpaceOnUse" color-interpolation-filters="sRGB">
<feFlood flood-opacity="0" result="BackgroundImageFix"/>
<feColorMatrix in="SourceAlpha" type="matrix" values="0 0 0 0 0 0 0 0 0 0 0 0 0 0 0 0 0 0 127 0" result="hardAlpha"/>
<feOffset dy="4"/>
<feGaussianBlur stdDeviation="5"/>
<feComposite in2="hardAlpha" operator="out"/>
<feColorMatrix type="matrix" values="0 0 0 0 0 0 0 0 0 0 0 0 0 0 0 0 0 0 0.72 0"/>
<feBlend mode="normal" in2="BackgroundImageFix" result="effect1_dropShadow"/>
<feBlend mode="normal" in="SourceGraphic" in2="effect1_dropShadow" result="shape"/>
</filter>
<clipPath id="clip0">
<rect width="288" height="274" fill="white"/>
</clipPath>
</defs>
</svg>
